<svg width="90" height="90" viewBox="0 0 90 90" fill="none" xmlns="http://www.w3.org/2000/svg">
<rect x="1" y="1" width="88" height="88" rx="3" stroke="#A78768" stroke-width="2"/>
<path d="M35 30C32.2386 30 30 32.2386 30 35V39C30 50.598 39.402 60 51 60H55C57.7614 60 60 57.7614 60 55V52.2361C60 51.0998 59.358 50.061 58.3416 49.5528L53.5098 47.1369C51.8769 46.3204 49.8994 47.1395 49.3221 48.8715L48.7266 50.6581C48.5003 51.3369 47.8039 51.741 47.1023 51.6007C42.7106 50.7223 39.2777 47.2894 38.3993 42.8977C38.259 42.1961 38.6631 41.4997 39.3419 41.2734L41.5592 40.5344C43.0464 40.0386 43.9012 38.4815 43.521 36.9607L42.3489 32.2724C42.015 30.9369 40.815 30 39.4384 30H35Z" fill="#A78768"/>
</svg>
