<svg width="651" height="54" viewBox="0 0 651 54" fill="none" xmlns="http://www.w3.org/2000/svg">
<rect x="1.6" y="0.6" width="54.8002" height="52.8" rx="3.4" stroke="#8B7157" stroke-width="1.2"/>
<path d="M43.9547 14.9339C43.9281 14.5327 43.6638 14.1865 43.2839 14.055C42.904 13.9235 42.4823 14.0324 42.2134 14.3312C41.5222 15.0995 40.6486 15.6202 39.762 15.8576C38.5289 14.7063 36.872 14 35.0513 14C31.1436 14 27.9785 17.1723 27.9785 21.0822V21.9618C21.996 21.4995 18.7968 16.955 17.9335 14.6494C17.794 14.2767 17.4467 14.0222 17.0494 14.0014C16.652 13.9806 16.28 14.1973 16.1023 14.5534C14.0088 18.7468 13.6863 22.8139 15.2078 26.2773C16.5406 29.3111 19.2211 31.7278 23.0202 33.3289C21.2936 34.5525 18.3876 36 15.0001 36C14.5595 36 14.1709 36.2883 14.0431 36.7099C13.9153 37.1315 14.0784 37.5871 14.4448 37.8317C17.693 40.0005 21.0973 40.0003 24.2637 40L24.3606 40C34.0819 40 41.9599 32.1076 41.9599 22.375V21.4184C42.6868 20.6797 43.2527 19.9235 43.5995 18.9458C43.9865 17.8549 44.0645 16.59 43.9547 14.9339Z" fill="#8B7157"/>
<rect x="79.6" y="0.6" width="52.8" height="52.8" rx="3.4" stroke="#8B7157" stroke-width="1.2"/>
<path fill-rule="evenodd" clip-rule="evenodd" d="M91 15C91 13.3431 92.3431 12 94 12H118C119.657 12 121 13.3431 121 15V39C121 40.6569 119.657 42 118 42H94C92.3431 42 91 40.6569 91 39V15ZM101 22H99V20H101V22ZM99 34V24H101V34H99ZM108 26C106.343 26 105 27.3431 105 29V34H103V24H105V24.9996C105.836 24.3719 106.874 24 108 24C110.761 24 113 26.2386 113 29V34H111V29C111 27.3431 109.657 26 108 26Z" fill="#8B7157"/>
<rect x="155.6" y="0.6" width="52.8" height="52.8" rx="3.4" stroke="#8B7157" stroke-width="1.2"/>
<path d="M182 22C179.239 22 177 24.2386 177 27C177 29.7614 179.239 32 182 32C184.761 32 187 29.7614 187 27C187 24.2386 184.761 22 182 22Z" fill="#8B7157"/>
<path fill-rule="evenodd" clip-rule="evenodd" d="M176 12C171.029 12 167 16.0294 167 21V33C167 37.9706 171.029 42 176 42H188C192.971 42 197 37.9706 197 33V21C197 16.0294 192.971 12 188 12H176ZM175 27C175 23.134 178.134 20 182 20C185.866 20 189 23.134 189 27C189 30.866 185.866 34 182 34C178.134 34 175 30.866 175 27ZM189 20H191V18H189V20Z" fill="#8B7157"/>
<rect x="231.6" y="0.616602" width="52.8" height="52.7672" rx="3.4" stroke="#8B7157" stroke-width="1.2"/>
<path d="M243 27.0166C243 18.7323 249.716 12.0166 258 12.0166C266.284 12.0166 273 18.7323 273 27.0166C273 34.9648 266.818 41.4692 259 41.9838V30.0166H263V28.0166H259V25.0166C259 23.3597 260.343 22.0166 262 22.0166H263V20.0166H262C259.239 20.0166 257 22.2552 257 25.0166V28.0166H253V30.0166H257V41.9838C249.182 41.4692 243 34.9648 243 27.0166Z" fill="#8B7157"/>
</svg>
