<svg width="90" height="91" viewBox="0 0 90 91" fill="none" xmlns="http://www.w3.org/2000/svg">
<rect x="1" y="1.8335" width="88" height="88" rx="3" stroke="#A78768" stroke-width="2"/>
<path d="M42 43.8256C42 42.172 43.3437 40.8282 45 40.8282C46.6563 40.8282 48 42.172 48 43.8256C48 45.4793 46.6563 46.8231 45 46.8231C43.3437 46.8231 42 45.4793 42 43.8256Z" fill="#A78768"/>
<path fill-rule="evenodd" clip-rule="evenodd" d="M32 43.8256C32 36.651 37.8223 30.8335 45 30.8335C52.1777 30.8335 58 36.651 58 43.8256C58 49.1737 55.3234 53.4106 52.4569 56.2753C51.0203 57.711 49.5155 58.824 48.2265 59.5837C47.5823 59.9633 46.9803 60.2617 46.457 60.4682C45.9629 60.6633 45.4442 60.8152 45 60.8152C44.5558 60.8152 44.0371 60.6633 43.543 60.4682C43.0197 60.2617 42.4177 59.9633 41.7735 59.5837C40.4845 58.824 38.9797 57.711 37.5431 56.2753C34.6766 53.4106 32 49.1737 32 43.8256ZM45 38.8282C42.2403 38.8282 40 41.0662 40 43.8256C40 46.5851 42.2403 48.8231 45 48.8231C47.7597 48.8231 50 46.5851 50 43.8256C50 41.0662 47.7597 38.8282 45 38.8282Z" fill="#A78768"/>
</svg>
